<?xml version="1.0" encoding="UTF-8"?>
<svg xmlns="http://www.w3.org/2000/svg" width="57.2" height="57.2" viewBox="0 0 57.2 57.2">
  <defs>
    <clipPath id="roundedTorso">
      <rect x="7.6" y="14.4" width="42" height="34" rx="6" ry="6"/>
    </clipPath>
  </defs>

  <!-- Torso outer shape -->
  <rect x="7.6" y="14.4" width="42" height="34" rx="6" ry="6" fill="#F2B705" stroke="#161616" stroke-width="3"/>

  <!-- Neck connector (for head) -->
  <rect x="22.9" y="9.2" width="11.4" height="7" rx="1.8" ry="1.8" fill="#F2B705" stroke="#161616" stroke-width="3"/>

  <!-- Hip/waist connector -->
  <rect x="19.6" y="48.4" width="18" height="4.4" rx="1.2" ry="1.2" fill="#F2B705" stroke="#161616" stroke-width="3"/>

  <!-- Simple Halloween accent: subtle jack-o'-lantern face on the chest -->
  <g clip-path="url(#roundedTorso)">
    <path d="M28.6,33.4 l-6.4,4.2 h12.8 z" fill="#161616"/>
    <polygon points="22.4,28.8 26.8,28.0 25.4,32.2" fill="#161616"/>
    <polygon points="34.8,28.8 30.4,28.0 31.8,32.2" fill="#161616"/>
    <polygon points="28.6,25.8 26.6,24.8 30.6,24.8" fill="#161616"/>
  </g>

  <!-- Optional shoulder hints -->
  <path d="M10.1 27.6 q4.0-6.4 10.5-6.4" fill="none" stroke="#161616" stroke-width="2" stroke-linecap="round" opacity="0.35"/>
  <path d="M47.1 27.6 q-4.0-6.4-10.5-6.4" fill="none" stroke="#161616" stroke-width="2" stroke-linecap="round" opacity="0.35"/>
</svg>
