<svg width="32.65" height="32.65" viewBox="0 0 32.65 32.65" xmlns="http://www.w3.org/2000/svg">
  <!-- Background transparent -->
  <defs>
    <linearGradient id="headGrad" x1="0" y1="0" x2="0" y2="1">
      <stop offset="0%" stop-color="#FFA11A"/>
      <stop offset="100%" stop-color="#FF7A00"/>
    </linearGradient>
  </defs>

  <!-- Witch hat -->
  <g transform="translate(0,-0.6)">
    <!-- Hat brim -->
    <ellipse cx="16.325" cy="6.4" rx="9.2" ry="2.1" fill="#0E0E0E"/>
    <!-- Hat cone (slightly tilted) -->
    <path d="M16.8 1.4c2.9 5.1 3.6 7.8 3.7 9.1c-3.1 0.7-6.7 0.7-9.8 0c0.2-1.6 1.3-4.2 6.1-9.1z"
          fill="#121212"/>
    <!-- Hat band -->
    <rect x="10.2" y="6" width="12.3" height="1.3" fill="#6C3AFF"/>
    <!-- Hat buckle -->
    <rect x="15.0" y="5.85" width="2.6" height="1.6" fill="#FFC83D"/>
  </g>

  <!-- Stud (top cylinder of LEGO head) -->
  <rect x="10.4" y="8.0" width="11.9" height="3.6" rx="1.3" fill="url(#headGrad)" stroke="#A84D00" stroke-width="0.7"/>

  <!-- Head block -->
  <rect x="5.1" y="11.0" width="22.45" height="16.9" rx="2.4" fill="url(#headGrad)" stroke="#A84D00" stroke-width="0.8"/>

  <!-- Jack-o'-lantern face -->
  <!-- Eyes -->
  <polygon points="11.1,17.2 14.2,15.2 14.9,18.8" fill="#2C0D00"/>
  <polygon points="21.6,17.2 18.5,15.2 17.8,18.8" fill="#2C0D00"/>
  <!-- Nose -->
  <polygon points="16.3,18.6 15.2,20.3 17.4,20.3" fill="#2C0D00"/>
  <!-- Mouth (jagged) -->
  <path d="M9.2 23.4
           C10.4 22.9 11.0 23.8 12.2 23.4
           L13.2 22.2 L14.4 23.6
           L15.5 22.2 L16.6 23.6
           L17.8 22.2 L19.0 23.6
           C20.0 23.9 20.8 23.1 21.9 23.5
           C22.6 23.7 22.9 24.6 22.2 25.1
           C20.4 26.6 12.3 26.6 10.4 25.1
           C9.7 24.6 9.3 23.9 9.2 23.4z"
        fill="#2C0D00"/>

  <!-- Subtle highlights -->
  <path d="M7.2 13.2h5.1c.8 0 1.4.6 1.4 1.4v0
           c0 .8-.6 1.4-1.4 1.4H7.2"
        fill="none" stroke="#FFD08A" stroke-opacity=".55" stroke-width=".7" stroke-linecap="round"/>

  <!-- Tiny spider for extra Halloween feel -->
  <g transform="translate(24.9,12.1) scale(0.6)">
    <circle cx="0" cy="0" r="1.4" fill="#1B1B1B"/>
    <line x1="-2.5" y1="-1.0" x2="-0.7" y2="-0.4" stroke="#1B1B1B" stroke-width="0.6" stroke-linecap="round"/>
    <line x1="-2.6" y1="0.0" x2="-0.7" y2="0.0" stroke="#1B1B1B" stroke-width="0.6" stroke-linecap="round"/>
    <line x1="-2.5" y1="1.0" x2="-0.7" y2="0.4" stroke="#1B1B1B" stroke-width="0.6" stroke-linecap="round"/>
    <line x1="2.5" y1="-1.0" x2="0.7" y2="-0.4" stroke="#1B1B1B" stroke-width="0.6" stroke-linecap="round"/>
    <line x1="2.6" y1="0.0" x2="0.7" y2="0.0" stroke="#1B1B1B" stroke-width="0.6" stroke-linecap="round"/>
    <line x1="2.5" y1="1.0" x2="0.7" y2="0.4" stroke="#1B1B1B" stroke-width="0.6" stroke-linecap="round"/>
    <!-- Thread -->
    <line x1="0" y1="-3.4" x2="0" y2="-1.7" stroke="#1B1B1B" stroke-width="0.6" stroke-linecap="round"/>
  </g>
</svg>
